<?xml version="1.0" encoding="UTF-8" standalone="no"?>
<!-- Created with Inkscape (http://www.inkscape.org/) -->

<svg
   width="50.000004mm"
   height="40.000008mm"
   viewBox="0 0 50.000003 40.000008"
   version="1.1"
   id="svg5"
   inkscape:version="1.1.2 (0a00cf5339, 2022-02-04)"
   sodipodi:docname="Computer.svg"
   xmlns:inkscape="http://www.inkscape.org/namespaces/inkscape"
   xmlns:sodipodi="http://sodipodi.sourceforge.net/DTD/sodipodi-0.dtd"
   xmlns="http://www.w3.org/2000/svg"
   xmlns:svg="http://www.w3.org/2000/svg">
  <sodipodi:namedview
     id="namedview7"
     pagecolor="#505050"
     bordercolor="#eeeeee"
     borderopacity="1"
     inkscape:pageshadow="0"
     inkscape:pageopacity="0"
     inkscape:pagecheckerboard="0"
     inkscape:document-units="mm"
     showgrid="false"
     inkscape:zoom="3.0147912"
     inkscape:cx="104.15315"
     inkscape:cy="100.33862"
     inkscape:window-width="1920"
     inkscape:window-height="995"
     inkscape:window-x="0"
     inkscape:window-y="0"
     inkscape:window-maximized="1"
     inkscape:current-layer="layer1" />
  <defs
     id="defs2" />
  <g
     inkscape:label="Layer 1"
     inkscape:groupmode="layer"
     id="layer1"
     transform="translate(-228.20095,-161.19701)">
    <path
       d="m 261.94995,197.27346 h 9.98876 c 0.69047,0 1.33491,-0.57539 1.33491,-1.33491 v -18.3896 c 0,-0.71348 -1.33491,-1.31189 -1.33491,-1.31189 h -9.98876 c -0.69047,0 -1.3349,0.59841 -1.3349,1.31189 v 18.3896 c 0,0.75952 0.64443,1.33491 1.3349,1.33491 z m 4.99439,-4.46502 c -1.05872,0 -1.88729,-0.82856 -1.88729,-1.88728 0,-1.05871 0.82857,-1.9103 1.88729,-1.9103 1.05871,0 1.88727,0.85159 1.88727,1.9103 0,1.05872 -0.82856,1.88728 -1.88727,1.88728 z m 0,-0.55237 c 0.78252,0 1.3349,-0.59841 1.3349,-1.38094 0,-0.64444 -0.36825,-1.10475 -0.85158,-1.26586 v 0.41428 c 0.32222,0.13809 0.52936,0.43729 0.52936,0.85158 0,0.57538 -0.48333,1.01269 -1.01268,1.01269 -0.52937,0 -1.01269,-0.43731 -1.01269,-1.01269 0,-0.41429 0.20714,-0.73651 0.52936,-0.8746 v -0.39126 c -0.48333,0.16111 -0.85158,0.62142 -0.85158,1.26586 0,0.78253 0.55238,1.38094 1.33491,1.38094 z m 0,-1.15079 c 0.0921,0 0.18412,-0.11507 0.18412,-0.18412 v -1.35792 c 0,-0.1381 -0.0921,-0.23016 -0.18412,-0.23016 -0.0921,0 -0.18413,0.0921 -0.18413,0.23016 v 1.35792 c 0,0.0691 0.0921,0.18412 0.18413,0.18412 z m -4.85629,-9.89686 v -3.52138 h 9.71258 v 3.52138 z m 1.12776,-1.7722 h 7.388 c 0.34523,0 0.36826,-0.1611 0.36826,-0.48332 0,-0.34524 -0.0231,-0.48334 -0.36826,-0.48334 h -7.388 c -0.34523,0 -0.36825,0.1381 -0.36825,0.48334 0,0.32222 0.023,0.48332 0.36825,0.48332 z m 6.53643,1.15078 h 1.01268 c 0.13809,0 0.20715,-0.046 0.20715,-0.20714 v -0.1381 c 0,-0.1611 -0.0691,-0.20713 -0.20715,-0.20713 h -1.01268 c -0.11508,0 -0.23016,0.046 -0.23016,0.20713 v 0.1381 c 0,0.16111 0.11508,0.20714 0.23016,0.20714 z"
       id="path6"
       style="stroke-width:0.0230156"
       sodipodi:nodetypes="sssscsssssssssssccsssccssssssssscccccssssssssssssssss" />
    <g
       id="g1313"
       transform="matrix(0.19462027,0,0,0.19462027,198.6654,156.92912)">
      <rect
         style="fill:none;fill-opacity:1;stroke:#000000;stroke-width:5.11542;stroke-dasharray:none;stroke-opacity:1"
         id="rect111"
         width="125.79685"
         height="77.746719"
         x="176.84407"
         y="51.465401"
         ry="0" />
      <rect
         style="fill:#000000;fill-opacity:1;stroke:none;stroke-width:4.55912;stroke-dasharray:none;stroke-opacity:1"
         id="rect1110"
         width="18.042498"
         height="11.147678"
         x="230.72124"
         y="130.93671"
         ry="0" />
      <rect
         style="fill:#000000;fill-opacity:1;stroke:none;stroke-width:4.52246;stroke-dasharray:none;stroke-opacity:1"
         id="rect1112"
         width="53.440975"
         height="7.5041709"
         x="213.022"
         y="141.7413" />
    </g>
    <path
       id="path9433"
       style="fill:none;stroke:#ff0000;stroke-width:0.8;stroke-linejoin:bevel;stroke-miterlimit:4;stroke-dasharray:none"
       d="m 234.41113,189.31894 h 20.95686 v 4.88394 h -20.95686 z"
       sodipodi:nodetypes="ccccc" />
    <rect
       style="fill:none;stroke:#ff0000;stroke-width:1.01565;stroke-linejoin:round;stroke-miterlimit:4;stroke-dasharray:none"
       id="rect2502"
       width="48.984352"
       height="38.984356"
       x="228.70877"
       y="161.70483" />
    <circle
       style="fill:none;stroke:#ff0000;stroke-width:1.091;stroke-linejoin:round;stroke-miterlimit:40;stroke-dasharray:none"
       id="path2714"
       cx="267.05212"
       cy="169.68591"
       r="0.70175111" />
  </g>
</svg>
